<?xml version="1.0" encoding="utf-8"?>
<!-- Generator: Adobe Illustrator 27.5.0, SVG Export Plug-In . SVG Version: 6.00 Build 0)  -->
<svg version="1.1" xmlns="http://www.w3.org/2000/svg" xmlns:xlink="http://www.w3.org/1999/xlink" x="0px" y="0px"
	 viewBox="0 0 500 500" style="enable-background:new 0 0 500 500;" xml:space="preserve">
<g id="BACKGROUND">
	<g>
		<rect y="0.006" style="fill:#F9FBFC;" width="500" height="500"/>
	</g>
</g>
<g id="OBJECTS">
	<g>
		<path style="fill:#1D262D;" d="M280.553,315.052c-3.006,1.35-6.104,2.532-9.305,3.482c3.079-2.765,5.946-5.763,8.611-8.945
			l-1.643-12.953c-6.219,9.337-14.208,17.276-23.679,23.15V284.38c7.893,0.471,15.548,2.182,22.758,5.009l-1.216-9.595
			c-6.908-2.263-14.133-3.645-21.542-4.042V251.13h38.288c-0.316,7.023-1.412,13.858-3.202,20.385l7.592,6.25
			c2.693-8.449,4.314-17.394,4.695-26.635h22.756c-0.808,14.189-5.59,27.327-13.245,38.326l6.655,5.479
			c9.642-13.606,15.329-30.201,15.329-48.108c0-21.531-8.202-41.183-21.646-55.996l0.104-0.104l-3.07-3.051
			c-13.612-13.531-31.078-21.789-49.899-23.775c-0.14-0.014-0.279-0.036-0.419-0.05c-1.149-0.115-2.303-0.196-3.461-0.263
			c-0.259-0.017-0.516-0.045-0.776-0.056c-0.485-0.025-0.972-0.025-1.458-0.042c-1.868-0.148-3.792-0.252-5.774-0.277
			c-0.598-0.011-1.168,0.135-1.715,0.353c-0.102,0.006-0.203,0.017-0.304,0.023c-1.158,0.067-2.313,0.148-3.461,0.263
			c-0.14,0.014-0.279,0.036-0.419,0.05c-18.821,1.986-36.288,10.245-49.899,23.775l-3.07,3.051l0.104,0.104
			c-13.444,14.814-21.646,34.465-21.646,55.996c0,21.534,8.202,41.186,21.646,55.997l-0.104,0.104l3.07,3.053
			c13.612,13.528,31.078,21.786,49.899,23.772c0.14,0.014,0.279,0.036,0.419,0.05c1.149,0.115,2.303,0.196,3.461,0.266
			c0.101,0.006,0.202,0.017,0.304,0.022c0.531,0.21,1.086,0.35,1.659,0.35c0.018,0,0.038,0,0.056,0
			c1.982-0.025,3.905-0.129,5.774-0.277c0.486-0.017,0.974-0.017,1.458-0.039c0.26-0.014,0.517-0.042,0.776-0.056
			c1.158-0.07,2.313-0.151,3.461-0.266c0.14-0.014,0.279-0.036,0.419-0.05c7.9-0.832,15.556-2.785,22.795-5.757L280.553,315.052z
			 M324.666,242.524h-22.756c-0.535-12.996-3.482-25.431-8.488-36.676c4.276-2.619,8.342-5.631,12.142-9.034
			C316.614,209.079,323.668,225.005,324.666,242.524z M299.433,190.761c-3.108,2.743-6.415,5.191-9.876,7.356
			c-4.853-8.679-11.025-16.455-18.308-22.996C281.801,178.253,291.382,183.654,299.433,190.761z M254.538,173.871
			c11.264,6.987,20.467,16.87,27.04,28.582c-8.428,3.933-17.568,6.258-27.04,6.824V173.871z M254.538,217.903
			c10.825-0.577,21.271-3.21,30.88-7.723c4.327,9.934,6.891,20.893,7.408,32.345h-38.288V217.903z M228.726,175.129
			c-7.283,6.536-13.451,14.304-18.301,22.977c-3.454-2.163-6.755-4.606-9.858-7.345
			C208.611,183.659,218.183,178.261,228.726,175.129z M194.435,196.814c3.793,3.398,7.854,6.407,12.122,9.02
			c-4.998,11.236-7.935,23.674-8.467,36.69h-22.756C176.332,225.005,183.386,209.079,194.435,196.814z M175.334,251.13h22.756
			c0.532,13.015,3.469,25.453,8.467,36.69c-4.268,2.616-8.329,5.622-12.122,9.02C183.386,284.576,176.332,268.653,175.334,251.13z
			 M200.567,302.897c3.103-2.74,6.405-5.183,9.858-7.345c4.851,8.673,11.018,16.439,18.301,22.977
			C218.183,315.393,208.611,309.995,200.567,302.897z M245.462,319.789c-11.278-6.99-20.489-16.859-27.061-28.577
			c8.434-3.936,17.58-6.267,27.061-6.832V319.789z M245.462,275.751c-10.832,0.58-21.286,3.216-30.899,7.735
			c-4.318-9.925-6.875-20.887-7.389-32.356h38.288V275.751z M245.462,242.524h-38.288c0.514-11.469,3.07-22.428,7.389-32.353
			c9.613,4.519,20.067,7.155,30.899,7.732V242.524z M245.462,209.278c-9.481-0.566-18.628-2.896-27.063-6.832
			c6.573-11.718,15.784-21.59,27.063-28.577V209.278z"/>
	</g>
	<polygon style="fill:#1D262D;" points="323.284,306.65 280.839,271.715 287.757,326.252 300.257,319.355 311.926,340.505 
		322.453,334.698 310.784,313.547 	"/>
</g>
<g id="DESIGNED_BY_FREEPIK">
	<g>
		<g id="XMLID_1_">
			<g id="XMLID_48_">
				<path id="XMLID_56_" style="fill:#1D262D;" d="M260.104,465.335c-0.432,0.443-0.803,0.931-1.108,1.453l-0.465-0.241
					c-0.067-0.298-0.349-0.503-0.659-0.466c-0.331,0.039-0.568,0.339-0.529,0.67c0.039,0.331,0.339,0.568,0.67,0.529
					c0.065-0.008,0.127-0.026,0.184-0.052l0.451,0.234c-0.251,0.554-0.433,1.139-0.539,1.744l0.747,0.132
					c0.23-1.306,0.85-2.507,1.792-3.473L260.104,465.335z"/>
				<path id="XMLID_55_" style="fill:#1D262D;" d="M265.592,463.033c-0.171,0-0.341,0.006-0.51,0.017l-0.074-0.626
					c0.188-0.149,0.296-0.389,0.266-0.645c-0.046-0.393-0.402-0.674-0.795-0.628c-0.393,0.046-0.674,0.402-0.628,0.795
					c0.03,0.254,0.189,0.461,0.405,0.564l0.073,0.624c-0.714,0.116-1.403,0.332-2.06,0.646l0.327,0.684
					c0.934-0.447,1.942-0.673,2.995-0.673c0.496,0,0.993,0.053,1.475,0.158l0.161-0.741
					C266.692,463.092,266.142,463.033,265.592,463.033z"/>
				<path id="XMLID_54_" style="fill:#1D262D;" d="M272.194,465.58c0.331-0.04,0.566-0.341,0.526-0.672
					c-0.04-0.331-0.341-0.566-0.672-0.526c-0.309,0.038-0.535,0.304-0.53,0.609l-0.416,0.363c-0.418-0.43-0.89-0.813-1.408-1.139
					l-0.404,0.641c1.134,0.715,2.021,1.726,2.563,2.925l0.69-0.313c-0.251-0.554-0.567-1.072-0.942-1.545l0.402-0.351
					C272.065,465.585,272.129,465.588,272.194,465.58z"/>
				<path id="XMLID_53_" style="fill:#1D262D;" d="M265.044,473.241c-0.386,0.023-0.775,0.035-1.157,0.035
					c-0.88,0-1.733-0.061-2.478-0.179c-0.39-0.062-0.846-0.155-1.27-0.292c1.046,1.861,3.069,3.125,5.388,3.125
					c2.855,0,5.262-1.916,5.95-4.504c-0.682,0.449-1.505,0.825-2.459,1.123C267.839,472.916,266.463,473.156,265.044,473.241z"/>
				<path id="XMLID_49_" style="fill:#1D262D;" d="M265.592,464.549c-3.352,0-6.08,2.666-6.08,5.944
					c0,0.426,0.046,0.849,0.137,1.261c0.673,0.483,2.706,0.89,5.348,0.731c2.879-0.173,5.297-0.957,6.672-2.159
					c-0.005-0.195-0.021-0.39-0.045-0.582C271.244,466.783,268.65,464.549,265.592,464.549z M263.432,471.064
					c-1.02,0-1.85-0.83-1.85-1.85c0-1.02,0.83-1.85,1.85-1.85c1.02,0,1.85,0.83,1.85,1.85
					C265.282,470.234,264.452,471.064,263.432,471.064z M268.17,470.155c-0.75,0-1.36-0.61-1.36-1.36c0-0.75,0.61-1.36,1.36-1.36
					c0.75,0,1.361,0.61,1.361,1.36C269.53,469.545,268.92,470.155,268.17,470.155z"/>
			</g>
			<path id="XMLID_46_" style="fill:#1D262D;" d="M281.595,466.416c-0.295-0.116-0.805-0.309-1.382-0.237
				c-0.551,0.069-0.844,0.34-0.844,1.007v0.866h2.228v1.717h-2.228v5.455h-1.932v-5.455h-1.34v-1.717h1.34v-0.888
				c0-1.68,0.896-2.783,2.568-2.783c0.643,0,1.157,0.122,1.59,0.308L281.595,466.416z"/>
			<path id="XMLID_44_" style="fill:#1D262D;" d="M286.298,469.748c-0.177-0.03-0.358-0.046-0.526-0.046
				c-0.896,0-1.51,0.548-1.51,1.613v3.908h-1.932v-7.172h1.873v0.785c0.451-0.673,1.14-0.977,2.021-0.977
				c0.414,0,0.848,0.128,1.094,0.337L286.298,469.748z"/>
			<path id="XMLID_35_" style="fill:#1D262D;" d="M293.965,471.626c0,0.222-0.015,0.489-0.037,0.651h-5.085
				c0.207,1.036,0.933,1.488,1.843,1.488c0.622,0,1.295-0.252,1.813-0.688l1.133,1.243c-0.814,0.748-1.85,1.088-3.057,1.088
				c-2.198,0-3.723-1.495-3.723-3.752c0-2.258,1.48-3.797,3.626-3.797C292.544,467.859,293.958,469.391,293.965,471.626z
				 M288.851,470.96h3.175c-0.177-0.918-0.733-1.436-1.562-1.436C289.554,469.524,289.021,470.072,288.851,470.96z"/>
			<path id="XMLID_10_" style="fill:#1D262D;" d="M301.618,471.626c0,0.222-0.015,0.489-0.037,0.651h-5.085
				c0.207,1.036,0.933,1.488,1.843,1.488c0.622,0,1.295-0.252,1.813-0.688l1.132,1.243c-0.814,0.748-1.85,1.088-3.057,1.088
				c-2.198,0-3.723-1.495-3.723-3.752c0-2.258,1.48-3.797,3.627-3.797C300.197,467.859,301.611,469.391,301.618,471.626z
				 M296.504,470.96h3.175c-0.178-0.918-0.733-1.436-1.562-1.436C297.207,469.524,296.674,470.072,296.504,470.96z"/>
			<path id="XMLID_7_" style="fill:#1D262D;" d="M309.964,471.634c0,2.154-1.495,3.775-3.471,3.775
				c-0.962,0-1.643-0.377-2.109-0.933v3.708h-1.924v-10.133h1.887v0.792c0.466-0.585,1.155-0.984,2.139-0.984
				C308.469,467.859,309.964,469.48,309.964,471.634z M304.287,471.634c0,1.132,0.748,1.976,1.843,1.976
				c1.14,0,1.85-0.881,1.85-1.976c0-1.095-0.71-1.976-1.85-1.976C305.035,469.658,304.287,470.501,304.287,471.634z"/>
			<path id="XMLID_4_" style="fill:#1D262D;" d="M313.068,465.705c0,0.696-0.54,1.229-1.236,1.229c-0.696,0-1.229-0.533-1.229-1.229
				c0-0.696,0.533-1.243,1.229-1.243C312.527,464.462,313.068,465.009,313.068,465.705z M312.809,475.223h-1.932v-7.172h1.932
				V475.223z"/>
			<path id="XMLID_2_" style="fill:#1D262D;" d="M316.032,470.605l2.701-2.554h2.368l-3.479,3.375l3.501,3.797h-2.376l-2.716-2.901
				v2.901H314.1v-10.658h1.932V470.605z"/>
		</g>
		<g>
			<path style="fill:#1D262D;" d="M184.412,475.158v-1.055c-0.527,0.718-1.391,1.23-2.387,1.23c-1.846,0-3.149-1.406-3.149-3.706
				c0-2.256,1.289-3.721,3.149-3.721c0.952,0,1.816,0.469,2.387,1.245v-3.765h1.099v9.77H184.412z M184.412,473.24v-3.208
				c-0.395-0.615-1.245-1.143-2.124-1.143c-1.421,0-2.27,1.172-2.27,2.739c0,1.567,0.85,2.724,2.27,2.724
				C183.168,474.353,184.017,473.855,184.412,473.24z"/>
			<path style="fill:#1D262D;" d="M186.932,471.614c0-2.051,1.465-3.706,3.486-3.706c2.139,0,3.398,1.67,3.398,3.794v0.279h-5.727
				c0.088,1.333,1.025,2.446,2.549,2.446c0.805,0,1.626-0.322,2.182-0.893l0.527,0.718c-0.703,0.703-1.655,1.084-2.812,1.084
				C188.44,475.334,186.932,473.826,186.932,471.614z M190.403,468.816c-1.509,0-2.256,1.274-2.314,2.358h4.643
				C192.718,470.119,192.015,468.816,190.403,468.816z"/>
			<path style="fill:#1D262D;" d="M194.607,474.221l0.571-0.791c0.469,0.542,1.362,1.011,2.329,1.011c1.084,0,1.67-0.513,1.67-1.216
				c0-1.714-4.38-0.659-4.38-3.281c0-1.098,0.952-2.036,2.636-2.036c1.201,0,2.051,0.454,2.622,1.025l-0.513,0.762
				c-0.424-0.513-1.201-0.894-2.109-0.894c-0.967,0-1.567,0.483-1.567,1.113c0,1.553,4.38,0.527,4.38,3.281
				c0,1.187-0.952,2.139-2.783,2.139C196.306,475.334,195.325,474.983,194.607,474.221z"/>
			<path style="fill:#1D262D;" d="M201.477,466.34c0-0.41,0.337-0.747,0.732-0.747c0.41,0,0.747,0.337,0.747,0.747
				c0,0.41-0.337,0.732-0.747,0.732C201.814,467.073,201.477,466.751,201.477,466.34z M201.667,475.158v-7.075h1.099v7.075H201.667z
				"/>
			<path style="fill:#1D262D;" d="M204.582,476.975l0.556-0.82c0.586,0.703,1.289,0.967,2.3,0.967c1.172,0,2.27-0.571,2.27-2.124
				v-1.011c-0.513,0.718-1.377,1.26-2.373,1.26c-1.845,0-3.149-1.377-3.149-3.662c0-2.27,1.289-3.676,3.149-3.676
				c0.952,0,1.802,0.469,2.373,1.245v-1.069h1.098v6.87c0,2.344-1.641,3.076-3.369,3.076
				C206.237,478.029,205.417,477.795,204.582,476.975z M209.709,473.122v-3.091c-0.381-0.615-1.23-1.143-2.109-1.143
				c-1.421,0-2.27,1.128-2.27,2.695c0,1.553,0.849,2.695,2.27,2.695C208.478,474.28,209.328,473.738,209.709,473.122z"/>
			<path style="fill:#1D262D;" d="M217.413,475.158v-4.629c0-1.245-0.63-1.641-1.582-1.641c-0.865,0-1.685,0.527-2.095,1.099v5.17
				h-1.099v-7.075h1.099v1.025c0.498-0.586,1.464-1.201,2.519-1.201c1.48,0,2.256,0.747,2.256,2.285v4.966H217.413z"/>
			<path style="fill:#1D262D;" d="M219.932,471.614c0-2.051,1.465-3.706,3.486-3.706c2.139,0,3.398,1.67,3.398,3.794v0.279h-5.727
				c0.088,1.333,1.025,2.446,2.549,2.446c0.806,0,1.626-0.322,2.183-0.893l0.527,0.718c-0.703,0.703-1.655,1.084-2.812,1.084
				C221.441,475.334,219.932,473.826,219.932,471.614z M223.404,468.816c-1.509,0-2.256,1.274-2.314,2.358h4.643
				C225.718,470.119,225.015,468.816,223.404,468.816z"/>
			<path style="fill:#1D262D;" d="M233.35,475.158v-1.055c-0.527,0.718-1.392,1.23-2.388,1.23c-1.846,0-3.149-1.406-3.149-3.706
				c0-2.256,1.289-3.721,3.149-3.721c0.952,0,1.817,0.469,2.388,1.245v-3.765h1.098v9.77H233.35z M233.35,473.24v-3.208
				c-0.396-0.615-1.245-1.143-2.124-1.143c-1.421,0-2.27,1.172-2.27,2.739c0,1.567,0.849,2.724,2.27,2.724
				C232.105,474.353,232.954,473.855,233.35,473.24z"/>
			<path style="fill:#1D262D;" d="M239.692,475.158v-9.77h1.098v3.765c0.572-0.776,1.421-1.245,2.388-1.245
				c1.845,0,3.149,1.465,3.149,3.721c0,2.299-1.304,3.706-3.149,3.706c-0.996,0-1.86-0.513-2.388-1.23v1.055H239.692z
				 M242.9,474.353c1.436,0,2.285-1.157,2.285-2.724c0-1.567-0.85-2.739-2.285-2.739c-0.864,0-1.728,0.527-2.109,1.143v3.208
				C241.171,473.855,242.036,474.353,242.9,474.353z"/>
			<path style="fill:#1D262D;" d="M247.528,476.931c0.161,0.073,0.425,0.117,0.601,0.117c0.483,0,0.805-0.161,1.055-0.747
				l0.469-1.069l-2.959-7.148h1.187l2.358,5.801l2.344-5.801h1.201l-3.545,8.51c-0.425,1.025-1.143,1.421-2.08,1.435
				c-0.234,0-0.601-0.044-0.805-0.103L247.528,476.931z"/>
		</g>
	</g>
</g>
</svg>
